<?xml version="1.0" standalone="no"?>
<!DOCTYPE svg PUBLIC "-//W3C//DTD SVG 20010904//EN"
 "http://www.w3.org/TR/2001/REC-SVG-20010904/DTD/svg10.dtd">
<svg version="1.0" xmlns="http://www.w3.org/2000/svg"
 width="190.000000pt" height="72.000000pt" viewBox="0 0 190.000000 72.000000"
 preserveAspectRatio="xMidYMid meet">

<g transform="translate(0.000000,72.000000) scale(0.100000,-0.100000)"
fill="#000000" stroke="none">
<path d="M170 696 c0 -2 8 -10 18 -17 15 -13 16 -12 3 4 -13 16 -21 21 -21 13z"/>
<path d="M156 667 c3 -10 9 -15 12 -12 3 3 0 11 -7 18 -10 9 -11 8 -5 -6z"/>
<path d="M229 641 c13 -12 28 -21 34 -21 12 0 11 0 -28 24 l-30 17 24 -20z"/>
<path d="M288 613 c7 -3 16 -2 19 1 4 3 -2 6 -13 5 -11 0 -14 -3 -6 -6z"/>
<path d="M348 613 c7 -3 16 -2 19 1 4 3 -2 6 -13 5 -11 0 -14 -3 -6 -6z"/>
<path d="M1661 597 c-15 -18 -43 -189 -39 -240 2 -29 8 -42 18 -42 12 0 16 19
22 88 3 48 11 102 17 119 20 57 8 106 -18 75z"/>
<path d="M156 513 c-6 -14 -5 -15 5 -6 7 7 10 15 7 18 -3 3 -9 -2 -12 -12z"/>
<path d="M1008 490 c-15 -11 -34 -40 -43 -64 -15 -38 -15 -48 -3 -73 22 -46
103 -45 134 2 22 34 11 42 -22 16 -29 -23 -74 -28 -74 -8 0 6 17 21 37 32 47
25 73 67 57 92 -16 26 -56 27 -86 3z m57 -20 c7 -11 -38 -60 -55 -60 -16 0
-12 15 11 44 22 28 34 32 44 16z"/>
<path d="M1365 458 c-14 -29 -25 -59 -25 -65 0 -7 -4 -13 -10 -13 -8 0 -23 44
-32 95 -6 34 -21 21 -57 -45 -38 -71 -50 -67 -54 17 -2 41 -5 48 -22 48 -18 0
-20 -6 -17 -49 3 -57 36 -140 54 -134 7 2 26 29 42 58 l30 54 9 -29 c12 -39
37 -66 55 -63 8 2 28 35 44 73 35 82 37 96 20 102 -7 3 -22 -17 -37 -49z"/>
<path d="M1461 486 c-18 -22 -10 -171 9 -171 8 0 19 18 26 43 7 23 23 56 35
73 18 26 26 30 51 25 26 -5 29 -3 26 17 -2 15 -11 23 -28 26 -19 2 -33 -7 -62
-40 l-38 -44 10 34 c13 47 -3 68 -29 37z"/>
<path d="M129 473 c-13 -16 -12 -17 4 -4 9 7 17 15 17 17 0 8 -8 3 -21 -13z"/>
<path d="M747 483 c-3 -5 -7 -41 -9 -82 -2 -53 1 -75 9 -78 7 -3 17 6 22 19
14 36 71 109 80 104 5 -3 11 -24 14 -47 7 -51 30 -78 54 -63 23 14 31 39 10
31 -17 -6 -21 1 -32 65 -11 66 -59 71 -102 12 l-19 -26 4 36 c3 28 1 36 -11
36 -9 0 -18 -3 -20 -7z"/>
<path d="M90 450 c-9 -6 -10 -10 -3 -10 6 0 15 5 18 10 8 12 4 12 -15 0z"/>
<path d="M514 338 l-29 -33 33 29 c30 28 37 36 29 36 -2 0 -16 -15 -33 -32z"/>
<path d="M151 313 c7 -12 15 -20 18 -17 3 2 -3 12 -13 22 -17 16 -18 16 -5 -5z"/>
<path d="M308 203 c12 -2 30 -2 40 0 9 3 -1 5 -23 4 -22 0 -30 -2 -17 -4z"/>
<path d="M401 188 c2 -2 22 -19 44 -38 l40 -35 -34 38 c-19 20 -39 37 -45 37
-5 0 -7 -1 -5 -2z"/>
<path d="M194 148 l-29 -33 33 29 c17 17 32 31 32 33 0 8 -8 1 -36 -29z"/>
<path d="M480 161 c0 -6 4 -13 10 -16 6 -3 7 1 4 9 -7 18 -14 21 -14 7z"/>
</g>
</svg>
